<svg xmlns="http://www.w3.org/2000/svg" version="1.1" xmlns:xlink="http://www.w3.org/1999/xlink" xmlns:svgjs="http://svgjs.com/svgjs" width="512" height="512" x="0" y="0" viewBox="0 0 24 24" style="enable-background:new 0 0 512 512" xml:space="preserve" class=""><g transform="matrix(-1,-1.224646799147353e-16,1.224646799147353e-16,-1,24,24.039610862731937)"><path d="M0 12s0-.006 0 0Zm23.5-.5H1.089c.075-.209.198-.401.364-.565l3.948-4.043a.5.5 0 1 0-.716-.698L.744 10.23A2.513 2.513 0 0 0 0 12c.002.658.258 1.296.716 1.761l3.923 4.086a.498.498 0 0 0 .707.013.5.5 0 0 0 .015-.707l-3.928-4.091a1.497 1.497 0 0 1-.351-.562H23.5a.5.5 0 0 0 0-1Z" fill="#000000" data-original="#000000" class=""></path></g></svg>