<?xml version="1.0" standalone="no"?>
<!DOCTYPE svg PUBLIC "-//W3C//DTD SVG 20010904//EN"
 "http://www.w3.org/TR/2001/REC-SVG-20010904/DTD/svg10.dtd">
<svg version="1.0" xmlns="http://www.w3.org/2000/svg"
 width="1024.000000pt" height="1024.000000pt" viewBox="0 0 1024.000000 1024.000000"
 preserveAspectRatio="xMidYMid meet">

<g transform="translate(0.000000,1024.000000) scale(0.100000,-0.100000)"
fill="#000f0a" stroke="none">
<path d="M5111 7876 c-5 -69 -143 -237 -397 -482 -121 -116 -241 -240 -268
-275 -48 -62 -47 -62 29 20 44 46 140 136 214 199 220 188 341 323 399 445
l28 59 19 -44 c47 -108 123 -193 335 -376 188 -163 250 -223 313 -302 90 -115
91 -105 1 15 -52 70 -161 179 -413 414 -132 123 -243 264 -254 323 -3 18 -5
19 -6 4z"/>
<path d="M5105 7763 c-10 -43 -61 -138 -107 -201 -22 -31 -127 -142 -232 -247
-124 -123 -216 -223 -259 -284 -78 -110 -172 -290 -215 -412 -30 -85 -76 -276
-85 -356 -8 -69 16 -30 38 62 34 140 154 451 208 540 37 62 100 155 104 155 5
0 -26 -54 -57 -100 -16 -23 -70 -151 -70 -164 0 -3 4 -6 8 -6 5 0 15 19 22 43
16 54 50 119 95 182 20 28 60 86 89 130 29 44 63 89 76 100 27 23 19 8 -27
-53 -51 -68 -39 -70 17 -3 34 41 48 66 44 78 -4 14 -4 15 4 4 7 -10 19 -1 52
43 23 31 44 56 47 56 2 0 1 -4 -2 -10 -3 -5 -2 -10 4 -10 6 0 16 10 22 23 7
12 18 27 24 32 24 20 129 159 166 221 22 35 39 74 39 86 0 17 8 9 30 -31 34
-62 79 -122 174 -236 37 -44 87 -118 111 -165 23 -47 51 -94 61 -105 11 -12
15 -15 10 -8 -28 41 -121 233 -101 208 103 -128 131 -168 163 -222 20 -34 38
-61 40 -59 5 6 -66 143 -78 151 -5 3 -15 16 -21 28 -20 41 50 -47 82 -103 17
-30 37 -62 44 -70 7 -8 30 -49 51 -90 22 -41 42 -77 47 -78 4 -2 4 -9 1 -14
-4 -7 -2 -8 4 -4 8 5 8 15 2 32 -14 37 -70 135 -98 172 -13 17 -20 32 -16 32
11 -1 35 -33 69 -94 14 -25 37 -63 50 -83 14 -19 25 -42 25 -50 0 -8 4 -11 10
-8 5 3 7 0 4 -9 -7 -18 25 -136 37 -136 12 0 12 -3 -11 58 -26 68 -26 87 1 37
29 -53 89 -212 89 -235 0 -9 8 -28 18 -41 23 -31 46 -94 68 -192 13 -56 20
-73 25 -60 27 65 -61 363 -163 553 -96 180 -165 268 -389 495 -220 223 -284
304 -314 396 -9 27 -18 49 -20 49 -1 0 -6 -12 -10 -27z"/>
<path d="M5096 7592 c-11 -26 -44 -82 -73 -124 -29 -43 -51 -78 -48 -78 6 0
113 145 129 174 l14 27 23 -40 c23 -41 33 -49 43 -32 6 8 -54 120 -64 121 -3
0 -14 -21 -24 -48z"/>
<path d="M5022 7415 c-88 -119 -162 -253 -220 -401 -17 -41 -18 -51 -6 -51 8
0 14 5 14 10 0 18 119 253 159 312 22 33 65 85 96 115 l55 55 30 -32 c65 -70
146 -193 197 -303 74 -159 86 -181 91 -176 8 9 -41 143 -85 230 -53 107 -98
177 -167 267 -28 37 -55 74 -61 83 -8 14 -26 -5 -103 -109z"/>
<path d="M5186 7512 c-4 -7 21 -45 59 -89 36 -42 81 -100 101 -130 19 -29 37
-53 40 -53 10 0 -36 77 -65 110 -18 19 -39 48 -47 63 -8 15 -24 38 -34 50 -11
12 -25 31 -33 41 -9 13 -16 15 -21 8z"/>
<path d="M3841 7455 c-76 -21 -144 -61 -197 -114 -45 -46 -108 -159 -120 -216
l-6 -30 16 28 c9 15 22 38 29 52 8 14 18 21 22 17 5 -4 5 -2 1 5 -4 7 2 18 14
25 11 7 20 17 20 22 0 12 32 35 48 36 7 0 20 7 29 15 9 9 23 13 34 10 11 -4
19 -2 19 5 0 12 40 29 85 36 61 9 243 5 286 -6 43 -12 106 -51 122 -77 4 -7
14 -13 21 -13 13 0 24 -19 46 -77 7 -18 16 -33 21 -33 13 0 11 106 -3 152 -17
56 -78 121 -140 148 -69 30 -262 38 -347 15z"/>
<path d="M6123 7459 c-154 -30 -236 -130 -226 -274 6 -72 13 -86 13 -24 0 50
20 86 57 100 13 5 21 13 18 19 -3 5 0 7 8 4 8 -3 20 2 27 11 7 8 18 15 24 15
6 0 25 7 41 16 39 21 220 30 298 15 32 -6 79 -21 105 -33 26 -12 53 -22 59
-21 7 0 10 -3 7 -8 -3 -5 2 -9 11 -9 8 0 18 -7 21 -15 4 -8 11 -15 18 -15 30
0 104 -112 122 -183 3 -15 8 -26 11 -24 2 3 -4 35 -13 73 -45 185 -181 321
-354 354 -62 12 -187 11 -247 -1z"/>
<path d="M5082 7365 c-65 -73 -136 -190 -176 -290 -13 -34 -14 -37 -1 -20 9
11 21 27 29 36 7 8 33 47 58 85 24 38 52 75 61 83 9 7 17 19 17 27 0 7 5 16
12 20 7 5 9 2 5 -9 -4 -11 -1 -15 14 -12 10 2 23 6 28 9 8 5 39 -30 104 -115
7 -9 20 -31 30 -50 11 -19 25 -45 33 -59 8 -14 19 -38 24 -54 18 -51 23 -19 5
36 -32 100 -178 348 -205 348 -4 0 -22 -16 -38 -35z"/>
<path d="M4932 7346 c-34 -39 -95 -126 -88 -126 2 0 21 24 42 53 21 28 49 64
63 80 13 15 22 27 19 27 -3 0 -19 -15 -36 -34z"/>
<path d="M3878 7293 c7 -3 16 -2 19 1 4 3 -2 6 -13 5 -11 0 -14 -3 -6 -6z"/>
<path d="M6280 7289 c-25 -4 -58 -12 -74 -18 -34 -13 -118 -72 -112 -79 3 -2
20 7 38 21 59 44 101 60 178 66 50 5 65 8 45 12 -16 2 -50 1 -75 -2z"/>
<path d="M3960 7277 c78 -23 122 -49 182 -108 42 -41 53 -48 40 -27 -41 72
-136 132 -222 142 l-45 6 45 -13z"/>
<path d="M2477 7244 c26 -38 41 -85 49 -161 4 -44 11 -63 20 -63 8 0 14 11 15
28 1 21 2 23 7 7 4 -18 5 -19 11 -2 5 15 22 19 96 23 50 2 92 9 93 14 5 13
128 13 189 0 26 -6 62 -12 78 -14 80 -9 193 -49 261 -92 46 -29 63 -46 129
-125 65 -77 111 -175 121 -256 4 -32 7 -63 8 -70 1 -7 5 -15 9 -19 13 -14 -5
163 -24 236 -28 106 -74 185 -149 261 -117 118 -209 147 -500 159 -223 9 -264
16 -355 63 -33 18 -64 34 -69 36 -5 2 0 -9 11 -25z"/>
<path d="M7689 7228 l-76 -40 -174 -9 c-266 -14 -387 -36 -495 -92 -145 -75
-255 -249 -290 -457 -8 -47 -17 -96 -20 -108 -3 -16 -1 -23 7 -20 6 2 13 24
15 48 4 43 16 92 34 135 22 56 57 122 74 143 11 12 17 22 13 22 -3 0 5 11 19
25 14 14 29 25 34 25 5 0 12 9 15 20 3 11 12 20 19 20 7 0 21 9 31 20 10 11
24 20 31 20 7 0 38 13 70 29 57 31 189 66 279 75 96 10 301 16 308 9 12 -12
39 -12 60 -2 17 10 18 7 13 -43 -5 -52 1 -47 20 17 5 17 16 30 24 30 10 0 19
19 27 60 7 33 22 72 33 87 11 16 17 28 13 27 -4 0 -42 -18 -84 -41z"/>
<path d="M4822 7198 c-20 -27 -91 -158 -84 -158 4 0 16 17 27 38 11 20 32 58
47 85 27 45 31 60 10 35z"/>
<path d="M4773 7188 c-15 -20 -25 -38 -20 -38 3 0 12 11 21 25 17 26 16 35 -1
13z"/>
<path d="M6069 7163 c-13 -16 -12 -17 4 -4 9 7 17 15 17 17 0 8 -8 3 -21 -13z"/>
<path d="M3870 7161 c42 -13 103 -48 133 -76 15 -14 27 -22 27 -17 0 25 -125
103 -164 101 -18 -1 -18 -2 4 -8z"/>
<path d="M6275 7141 c-27 -16 -61 -42 -75 -57 l-25 -29 25 20 c14 11 27 23 30
26 7 9 91 51 120 60 l25 7 -25 1 c-14 0 -47 -12 -75 -28z"/>
<path d="M6400 7105 c-7 -9 -10 -18 -7 -21 3 -3 10 4 17 15 13 25 8 27 -10 6z"/>
<path d="M5527 7065 c9 -19 18 -33 21 -31 4 5 -26 66 -33 66 -3 0 3 -16 12
-35z"/>
<path d="M4645 7069 c-4 -6 -5 -12 -2 -15 2 -3 7 2 10 11 7 17 1 20 -8 4z"/>
<path d="M5615 6998 c4 -13 11 -27 16 -33 5 -5 4 5 -2 23 -12 36 -24 44 -14
10z"/>
<path d="M7154 6964 c-77 -52 -116 -85 -109 -93 3 -2 20 9 38 26 17 17 61 49
96 72 35 23 60 41 54 41 -5 0 -40 -21 -79 -46z"/>
<path d="M7005 6833 l-18 -28 27 24 c28 26 31 31 17 31 -5 0 -17 -12 -26 -27z"/>
<path d="M5740 6824 c0 -10 5 -26 10 -34 8 -11 9 -7 4 15 -8 37 -14 45 -14 19z"/>
<path d="M5065 6577 c-17 -19 -82 -78 -145 -132 -202 -173 -288 -272 -453
-522 -182 -275 -273 -348 -432 -348 -66 0 -90 5 -140 28 -38 17 -52 21 -39 10
28 -24 40 -50 43 -95 2 -41 -2 -45 -50 -53 -18 -3 -35 -7 -37 -9 -1 -2 35 -10
80 -17 138 -22 419 -14 403 12 -4 5 -17 9 -31 9 -31 0 -31 15 1 44 14 13 25
27 25 31 0 4 22 28 48 54 26 25 54 60 61 77 7 18 30 46 52 65 21 18 39 38 39
45 0 8 9 18 20 24 11 6 20 18 20 27 0 10 6 14 20 10 12 -3 20 0 20 7 0 6 9 19
20 29 11 9 20 23 20 31 0 21 27 40 33 24 5 -12 11 16 8 35 -1 5 4 5 10 1 9 -5
10 -2 6 9 -5 12 1 19 19 23 14 4 23 9 20 11 -9 10 34 83 48 83 8 0 24 12 35
26 12 15 21 23 21 19 0 -4 12 4 26 19 15 14 35 26 46 26 10 0 31 11 46 25 25
23 27 24 37 6 5 -10 15 -16 21 -14 6 2 16 -16 23 -39 7 -23 21 -48 30 -55 14
-12 14 -12 -3 -6 -12 4 -17 3 -13 -4 4 -6 -12 -9 -46 -7 l-52 3 50 -8 c28 -5
84 -22 124 -39 l74 -31 41 18 c44 19 126 101 126 126 0 8 5 15 10 15 20 0 9
-49 -22 -96 -24 -34 -48 -56 -85 -74 -37 -18 -50 -29 -46 -40 27 -71 35 -105
42 -193 l8 -102 3 80 c2 44 4 85 5 90 2 6 3 18 4 28 1 11 6 15 13 11 8 -5 9
-2 4 11 -4 10 -2 21 3 24 6 4 13 22 16 41 3 19 11 37 16 38 6 3 5 10 -3 20
-12 14 -10 14 10 3 22 -12 23 -11 12 8 -8 17 -8 21 3 21 8 0 21 8 28 18 13 15
12 16 -3 3 -11 -8 -18 -9 -18 -3 0 29 25 19 73 -28 84 -83 92 -90 100 -90 6 0
67 -60 118 -116 14 -16 28 -37 32 -47 4 -10 11 -16 16 -13 5 4 12 -8 16 -25 4
-19 15 -33 26 -36 10 -3 19 -9 19 -14 0 -5 14 -21 30 -36 17 -14 30 -30 30
-35 0 -5 6 -15 13 -22 29 -31 72 -90 70 -98 -2 -4 4 -8 13 -8 10 0 14 -6 10
-15 -3 -8 0 -15 6 -15 6 0 21 -11 33 -24 13 -14 26 -22 31 -18 4 4 4 2 1 -5
-4 -6 -4 -13 0 -15 5 -2 22 -19 38 -39 17 -19 5 -11 -25 19 -39 40 -69 59
-110 73 -30 10 -47 13 -36 6 163 -105 233 -213 255 -399 6 -46 11 -246 13
-445 l3 -363 55 0 c87 0 229 19 309 41 40 11 76 18 78 15 9 -9 -157 -65 -237
-80 -197 -36 -636 -48 -765 -21 -215 45 -373 200 -430 420 -22 86 -36 331 -43
795 l-7 405 -25 45 c-47 83 -139 118 -225 85 -86 -32 -168 -157 -164 -249 l2
-31 6 35 c4 20 12 34 19 33 7 -2 12 2 12 8 0 5 4 7 10 4 5 -3 7 0 4 9 -4 11 0
13 15 9 12 -3 21 -9 21 -14 0 -5 12 -9 26 -9 14 0 33 -7 42 -16 10 -11 17 -13
20 -5 6 18 20 13 81 -23 33 -20 71 -55 91 -83 l35 -48 3 -200 3 -200 -26 30
c-29 35 -31 31 -10 -19 49 -116 72 -457 41 -616 -36 -193 -138 -308 -319 -358
-52 -14 -106 -17 -347 -16 -580 2 -779 53 -974 249 -35 37 -82 99 -109 147
-62 111 -64 113 -123 158 -54 41 -166 100 -186 99 -7 0 -4 -4 7 -9 14 -6 15
-9 5 -10 -8 0 4 -9 28 -20 53 -24 162 -99 162 -112 0 -5 4 -7 8 -4 15 9 38
-57 36 -103 -1 -24 4 -58 12 -76 8 -20 10 -35 4 -37 -16 -5 1 -48 19 -48 10 0
26 -7 37 -15 17 -13 8 -14 -86 -15 -123 0 -200 17 -279 62 -117 67 -211 178
-299 353 -116 230 -255 381 -438 475 -104 53 -193 72 -326 69 l-108 -2 44 -42
c24 -23 60 -74 81 -114 21 -39 41 -71 46 -71 5 0 9 -7 9 -16 0 -8 5 -12 10 -9
6 3 10 -2 11 -12 0 -10 3 -13 6 -5 8 20 27 14 63 -23 42 -42 54 -44 46 -7 -4
15 -3 22 1 16 4 -6 15 -10 24 -9 9 2 23 -8 30 -21 7 -13 16 -24 21 -24 4 0 8
-4 8 -9 0 -13 116 -209 135 -227 8 -9 15 -20 15 -25 0 -5 5 -9 10 -9 18 0 11
22 -14 44 -14 11 -53 75 -87 141 -77 149 -131 227 -204 293 -32 30 -50 52 -41
52 35 0 165 -153 225 -265 60 -112 107 -188 140 -222 12 -12 12 -18 0 -40 -13
-23 -11 -27 21 -58 19 -17 49 -47 65 -65 l30 -33 -30 19 c-16 11 -41 32 -54
47 -13 15 -26 25 -29 22 -3 -3 19 -31 49 -61 55 -58 44 -60 -25 -5 -55 44 -65
39 -14 -6 24 -21 54 -48 67 -60 13 -12 54 -39 90 -60 71 -41 63 -59 -11 -22
-55 28 -156 99 -187 133 -14 14 -29 26 -34 26 -9 0 26 -48 68 -91 14 -14 25
-30 25 -35 0 -6 24 -24 53 -42 46 -28 82 -43 242 -107 l40 -15 -55 6 c-132 14
-320 106 -429 209 -127 119 -247 304 -295 451 -14 43 -20 51 -36 47 -11 -3
-20 -11 -20 -19 0 -7 -6 -17 -13 -21 -12 -7 -43 -118 -39 -136 2 -5 4 -41 6
-80 5 -87 15 -139 27 -131 5 3 9 -56 9 -133 -1 -142 14 -247 44 -317 9 -22 14
-41 11 -44 -3 -3 -5 1 -5 8 0 7 -3 10 -7 7 -3 -4 2 -16 12 -28 17 -17 17 -22
5 -31 -12 -8 -12 -9 2 -4 23 7 50 -21 43 -44 -3 -9 1 -23 10 -30 8 -7 15 -18
15 -24 0 -32 238 -199 386 -271 214 -104 337 -132 533 -122 205 11 396 65 711
200 292 126 420 166 610 191 l45 6 -26 -23 c-32 -28 -69 -81 -69 -99 1 -7 6
-4 13 8 39 68 107 121 187 146 81 26 239 33 325 15 39 -8 71 -14 73 -12 9 8
-105 37 -181 45 -91 11 -192 3 -357 -26 -47 -8 -137 -21 -200 -29 -313 -41
-503 -96 -780 -225 -184 -86 -273 -112 -420 -124 -94 -8 -129 8 -40 18 141 16
249 53 455 156 273 136 437 186 753 230 529 73 794 44 946 -106 94 -93 111
-167 111 -474 0 -270 -10 -336 -77 -508 -51 -132 -119 -234 -233 -348 -141
-143 -278 -211 -443 -222 -61 -3 -99 0 -148 13 -194 52 -377 279 -425 526 -18
93 -16 281 4 357 48 183 169 376 292 467 39 29 39 28 -13 -30 -112 -125 -129
-152 -113 -168 10 -10 11 -8 5 6 -5 13 -2 16 10 11 10 -4 15 -13 12 -20 -3 -8
0 -11 10 -7 16 6 18 -10 4 -36 -10 -19 -24 -89 -17 -81 3 3 16 32 31 65 20 47
25 54 26 33 0 -15 -5 -30 -11 -33 -6 -4 -8 -13 -5 -20 3 -8 1 -27 -4 -44 -10
-34 -1 -119 10 -101 12 20 30 1 30 -31 0 -20 6 -32 20 -37 18 -7 80 -92 80
-110 0 -27 97 -125 152 -154 34 -18 59 -23 124 -23 84 0 95 5 174 73 46 39 81
64 86 59 3 -3 -23 -35 -56 -71 -50 -52 -59 -67 -46 -72 23 -9 77 30 160 112
38 38 65 62 61 54 -6 -10 -5 -12 3 -5 6 6 31 48 56 95 25 47 46 82 46 79 0
-12 -38 -116 -54 -147 -16 -31 -12 -67 6 -56 5 3 7 13 4 21 -3 8 -2 12 2 9 5
-3 17 15 28 40 21 48 39 59 32 19 -3 -13 -2 -22 2 -20 12 7 83 128 83 141 0 7
4 11 9 8 14 -9 9 -59 -13 -130 -76 -247 -267 -440 -494 -499 -117 -30 -261
-13 -355 42 -56 33 -133 105 -161 150 -12 19 -23 32 -26 29 -9 -9 46 -90 98
-143 106 -108 222 -157 374 -158 75 0 101 5 160 28 103 40 197 108 301 219 61
65 122 231 149 403 14 89 16 143 11 280 -3 94 -9 185 -13 204 -5 32 -7 30 -24
-40 -35 -137 -130 -238 -304 -324 -168 -82 -330 -102 -437 -53 -156 72 -225
215 -183 381 9 37 28 88 42 113 l26 46 -34 -17 c-19 -10 -36 -21 -39 -24 -5
-6 -32 -22 -93 -55 -59 -31 -247 -175 -299 -229 -69 -70 -133 -156 -173 -233
-31 -59 -49 -112 -26 -75 7 11 10 9 16 -8 5 -17 10 -19 26 -11 10 6 19 18 19
28 0 9 10 28 21 42 l21 25 -6 -25 c-4 -14 -14 -51 -22 -84 -11 -42 -13 -61 -5
-69 8 -8 11 -6 11 6 0 17 36 97 44 97 2 0 -1 -23 -6 -51 -5 -27 -8 -67 -6 -87
3 -35 4 -34 17 23 23 102 30 96 29 -25 -2 -129 10 -218 23 -185 4 11 8 14 8 6
1 -18 62 -145 73 -152 6 -3 10 -10 10 -15 0 -5 3 -9 6 -8 4 1 15 -7 24 -17 19
-20 22 -20 -157 -39 -49 -6 -131 -15 -182 -21 -111 -12 -195 0 -266 39 -136
74 -227 256 -214 431 7 90 20 137 47 171 l20 25 -6 -60 c-5 -47 -3 -63 8 -73
12 -10 18 -8 32 7 22 24 46 17 46 -13 0 -21 1 -21 19 3 12 16 20 20 23 11 2
-7 16 6 32 30 15 23 29 40 31 38 3 -2 -2 -26 -11 -53 -8 -27 -11 -56 -7 -65 8
-18 10 -26 13 -60 2 -22 3 -21 12 9 5 19 7 43 5 53 -3 10 -1 16 4 12 5 -3 9 3
9 13 0 10 16 36 36 58 l35 40 -30 -59 c-21 -40 -31 -72 -30 -100 1 -41 2 -41
9 10 4 28 13 60 19 70 12 18 12 18 7 1 -14 -43 -17 -188 -7 -262 14 -99 59
-199 101 -220 16 -8 50 -15 76 -15 l48 0 -42 35 c-117 101 -133 312 -39 510
42 87 140 219 226 306 114 114 294 237 432 296 59 24 119 67 119 84 0 7 -66
-13 -105 -31 -11 -5 -49 -21 -85 -35 -73 -29 -113 -48 -350 -164 -210 -102
-384 -160 -610 -201 -154 -29 -243 -26 -391 11 -184 46 -286 101 -517 276 -70
53 -160 112 -201 131 -167 80 -386 41 -455 -80 -28 -50 -17 -58 80 -61 94 -4
187 -33 181 -58 -3 -10 11 -26 39 -45 24 -16 44 -35 44 -42 0 -7 14 -19 30
-26 17 -7 27 -15 24 -19 -4 -3 -4 -14 0 -23 5 -13 9 -14 21 -4 13 11 17 8 26
-19 6 -17 15 -31 20 -31 6 0 20 -11 33 -25 13 -14 28 -25 35 -25 6 0 21 -16
33 -35 13 -19 29 -35 36 -35 7 0 41 -28 75 -61 43 -43 63 -57 65 -46 3 14 6
13 23 -4 10 -10 19 -26 19 -35 0 -9 9 -18 19 -21 11 -3 22 -11 25 -19 3 -8 15
-14 26 -14 11 0 20 -7 20 -15 0 -8 7 -15 15 -15 8 0 15 -4 15 -10 0 -5 5 -10
11 -10 6 0 17 -6 24 -12 33 -29 43 -37 47 -32 3 2 13 -5 23 -16 10 -11 26 -20
36 -20 9 0 19 -3 21 -7 5 -12 79 -46 106 -49 13 -1 29 -7 35 -12 7 -4 31 -14
55 -22 23 -7 42 -17 42 -22 0 -4 11 -8 25 -8 14 0 25 -6 25 -13 0 -7 9 -21 21
-30 11 -10 18 -25 15 -33 -3 -9 2 -17 12 -21 30 -12 42 -31 42 -65 0 -19 5
-39 11 -45 12 -12 47 -99 56 -140 3 -12 14 -30 24 -39 10 -9 19 -25 19 -36 0
-10 4 -18 10 -18 5 0 7 -7 4 -15 -4 -9 0 -15 10 -15 10 0 16 -8 16 -21 0 -12
8 -23 20 -26 11 -3 20 -8 20 -12 0 -13 106 -118 126 -125 12 -3 26 -18 32 -31
9 -19 19 -25 42 -25 21 0 30 -5 30 -16 0 -12 7 -15 31 -12 21 3 33 0 36 -9 5
-12 7 -12 14 -2 6 10 11 10 23 0 12 -10 19 -11 30 -2 14 12 46 5 46 -10 0 -17
28 -9 33 10 3 15 13 18 53 16 81 -4 134 -16 134 -31 0 -8 10 -14 25 -14 15 0
41 -16 67 -41 24 -22 55 -47 70 -55 15 -8 31 -22 37 -31 7 -14 12 -15 24 -5
10 9 17 10 22 2 3 -5 1 -10 -4 -10 -21 0 -11 -20 13 -26 14 -3 32 -14 42 -25
9 -10 30 -19 46 -19 20 0 28 -5 29 -17 0 -11 3 -13 6 -5 7 17 33 15 54 -4 10
-9 39 -17 66 -19 26 -1 56 -6 66 -10 11 -4 17 -3 17 5 0 8 11 11 30 8 18 -3
35 1 41 9 6 7 15 10 20 7 5 -3 17 2 26 11 13 13 18 14 24 3 7 -11 11 -10 19 2
9 14 14 16 53 19 9 0 17 8 17 16 0 9 10 15 26 15 19 0 25 4 20 15 -3 9 0 15 8
15 8 0 17 6 19 13 4 9 8 8 16 -3 5 -8 11 -12 13 -10 2 3 8 14 14 25 5 11 29
29 52 40 23 11 41 25 42 31 0 18 44 50 63 46 9 -2 17 2 17 8 0 15 97 112 128
129 12 6 22 18 22 26 0 8 5 15 11 15 5 0 7 -4 4 -10 -3 -5 -3 -10 2 -10 12 0
35 16 34 24 -4 25 1 29 16 13 16 -16 18 -15 40 5 l24 22 6 -22 c3 -14 11 -21
20 -18 7 3 21 -3 31 -14 54 -62 80 -86 89 -83 5 2 32 -21 60 -52 28 -30 54
-55 59 -55 5 0 22 -14 37 -30 16 -17 39 -33 52 -36 12 -3 28 -16 35 -30 9 -16
19 -22 31 -19 9 3 19 -1 22 -8 3 -8 21 -17 40 -21 19 -4 40 -13 47 -21 6 -7
34 -18 61 -24 27 -6 61 -18 74 -27 23 -15 25 -15 19 0 -3 9 -1 16 5 16 6 0 11
-7 11 -16 0 -14 7 -16 40 -11 22 3 40 1 40 -4 0 -6 8 -5 19 1 11 5 32 10 47
10 15 0 35 6 43 13 9 7 34 19 56 26 22 7 62 24 88 38 26 13 55 22 63 19 8 -3
12 -2 9 3 -3 5 4 12 15 16 11 3 20 10 20 14 0 5 11 20 24 34 16 17 27 22 34
15 13 -13 32 -2 32 18 0 8 7 14 15 14 8 0 15 5 15 10 0 6 7 10 16 10 9 0 26 9
38 21 29 28 98 52 107 37 4 -6 15 -8 24 -4 10 3 23 2 30 -4 9 -7 16 -6 25 5
10 12 24 14 62 9 36 -5 52 -3 58 6 4 7 19 14 34 15 14 2 48 17 76 34 28 17 54
31 58 31 5 0 18 10 29 22 37 40 71 68 82 68 6 0 11 7 11 16 0 17 30 60 68 98
12 13 22 31 22 40 0 9 4 16 9 16 5 0 20 21 33 47 13 27 26 50 29 53 4 3 10 19
13 37 4 17 14 37 22 44 8 6 14 22 14 35 0 12 5 26 10 29 6 4 8 11 4 16 -3 5 0
8 8 7 7 -2 14 7 16 18 2 12 12 24 24 27 13 4 19 11 15 21 -3 8 -2 18 3 21 6 4
10 0 11 -7 1 -7 4 -2 8 12 4 14 14 25 23 25 8 0 22 6 31 14 9 7 20 10 26 7 5
-3 11 1 15 9 3 8 15 15 26 15 12 0 19 -4 16 -9 -8 -12 34 -1 52 13 7 6 22 19
33 29 23 21 30 22 23 2 -9 -23 10 -18 40 10 29 27 46 32 46 13 0 -6 10 -2 23
10 13 12 27 22 31 22 4 0 19 11 34 25 15 14 38 25 52 25 20 0 22 2 10 10 -8 5
-10 10 -5 11 62 7 81 18 91 52 5 18 16 32 24 33 8 1 25 2 38 2 17 2 24 10 29
32 3 17 10 30 14 30 5 0 56 46 113 103 100 99 177 170 243 225 18 15 43 37 55
50 12 12 27 22 33 22 6 0 24 14 40 30 16 17 37 30 46 30 10 0 38 9 63 20 25
10 46 16 46 11 0 -4 21 -7 47 -7 61 1 65 18 18 73 -72 84 -226 125 -352 94
-79 -20 -183 -78 -273 -151 -196 -161 -326 -235 -496 -286 -92 -27 -111 -29
-254 -28 -180 1 -213 7 -455 80 -135 41 -220 74 -340 133 -165 81 -274 133
-287 136 -5 2 -10 4 -13 5 -3 1 -8 3 -12 4 -5 2 -35 15 -67 29 -33 15 -96 39
-140 52 -113 35 -128 48 -46 40 144 -14 315 -67 595 -183 190 -78 441 -162
561 -187 114 -23 257 -30 355 -16 142 21 328 92 455 174 77 49 259 194 232
184 -10 -3 7 19 37 50 30 32 55 65 55 74 0 9 7 22 15 29 18 15 20 34 3 24 -8
-5 -9 -2 -3 12 8 21 23 89 30 144 3 19 8 51 11 70 9 55 -2 32 -25 -55 -44
-160 -143 -302 -282 -405 -181 -134 -363 -187 -559 -160 -170 22 -277 74 -446
215 -60 49 -155 125 -213 167 -57 43 -101 78 -97 78 12 0 130 -62 171 -90 22
-15 79 -58 125 -95 134 -107 239 -172 325 -202 72 -24 94 -27 215 -28 116 0
145 4 205 24 148 50 259 123 366 239 146 159 206 338 210 623 1 74 6 142 11
151 18 36 -28 148 -61 148 -4 0 -24 -41 -46 -92 -21 -50 -61 -126 -89 -167
-65 -98 -214 -246 -296 -294 -80 -46 -204 -95 -277 -108 -87 -16 -94 -5 -13
20 83 25 186 76 270 132 60 40 97 75 66 63 -11 -4 -16 -1 -16 10 0 12 -11 9
-47 -17 -27 -18 -64 -42 -83 -54 -35 -21 -140 -66 -140 -59 0 2 27 20 60 40
33 20 65 42 72 49 7 7 40 34 73 60 33 27 64 56 69 65 7 13 -75 -48 -94 -69 -8
-9 -93 -65 -110 -72 -8 -4 -26 -14 -40 -23 -31 -20 27 35 95 91 92 76 155 138
149 147 -3 5 -12 0 -20 -11 -8 -11 -21 -18 -29 -15 -9 4 -15 0 -15 -9 0 -8 -7
-20 -15 -27 -12 -10 -15 -10 -15 0 0 6 -23 -5 -51 -25 -62 -45 -77 -40 -17 5
63 49 168 153 168 167 0 6 6 16 13 20 18 11 47 59 47 78 0 9 5 13 10 10 6 -3
10 0 10 8 0 7 9 23 20 35 11 12 20 26 20 32 0 22 19 8 23 -17 4 -27 4 -27 12
-5 4 12 10 22 14 22 3 0 17 20 30 45 26 48 35 54 45 28 6 -14 8 -14 22 5 17
24 44 29 44 8 0 -24 96 77 119 126 21 44 63 90 121 131 24 17 21 17 -125 13
-169 -4 -230 -17 -345 -73 -59 -29 -96 -57 -171 -132 -103 -104 -157 -180
-238 -338 -92 -179 -190 -288 -319 -356 -120 -63 -248 -81 -377 -53 -59 13
-60 25 -2 31 12 1 27 3 33 4 11 1 16 131 5 131 -4 0 -17 -17 -29 -37 -31 -53
-87 -111 -146 -150 -78 -51 -78 -39 0 16 65 46 104 92 104 123 0 7 7 25 14 41
8 15 11 27 6 27 -4 0 0 17 10 38 10 20 30 64 45 97 16 33 44 80 64 105 84 105
157 188 200 225 66 57 91 83 91 96 0 5 4 8 8 5 4 -3 33 18 63 45 29 27 71 54
92 61 20 6 35 13 32 16 -10 10 160 79 223 91 36 7 128 11 210 10 191 -2 186
-2 240 7 47 7 46 7 -68 30 -164 33 -317 41 -404 20 -201 -48 -443 -242 -659
-530 l-82 -108 -6 38 -6 39 -2 -48 c-5 -199 -267 -377 -460 -312 -70 23 -152
99 -191 178 -54 111 -63 185 -64 548 l-1 325 -72 12 c-40 6 -91 21 -114 33
-88 45 -178 148 -278 322 -136 235 -269 390 -461 532 -58 42 -121 93 -140 111
l-36 34 -29 -33z m120 -273 c34 -16 65 -65 65 -102 0 -28 -38 -72 -78 -89 -44
-18 -91 -4 -127 38 -41 49 -29 111 31 150 35 23 65 24 109 3z m61 -211 c-9
-18 -27 -33 -49 -40 -46 -14 -67 -1 -24 15 19 7 44 23 57 37 29 31 36 26 16
-12z m2777 -1017 c-10 -13 -20 -22 -22 -20 -4 4 29 44 36 44 2 0 -4 -11 -14
-24z m-5736 -78 c42 -60 99 -163 85 -154 -7 4 -31 39 -54 79 -23 40 -48 82
-56 95 -25 39 -7 24 25 -20z m5672 -35 c-24 -43 -58 -102 -77 -131 -40 -62
-125 -152 -142 -152 -7 0 1 12 17 28 46 42 105 120 158 207 26 44 54 90 62
103 7 12 16 22 18 22 3 0 -13 -35 -36 -77z m-136 -118 c-3 -9 -8 -14 -10 -11
-3 3 -2 9 2 15 9 16 15 13 8 -4z m-5766 -245 c16 0 99 -65 146 -115 64 -67
375 -214 456 -215 9 0 23 -5 31 -11 16 -11 -141 -6 -190 6 -18 5 -21 4 -10 -3
17 -11 148 -38 233 -48 76 -9 73 -34 -4 -34 -54 0 -21 -17 48 -26 l68 -8 -38
-10 c-60 -16 -38 -31 54 -36 l84 -5 -80 -19 c-44 -11 -82 -23 -85 -26 -3 -4
-12 -10 -20 -14 -8 -3 50 -4 130 -2 l145 4 -58 -17 c-32 -9 -55 -20 -51 -24 4
-4 -2 -7 -14 -7 -13 0 -22 -6 -22 -15 0 -8 -9 -15 -19 -15 -11 0 -22 -4 -26
-10 -3 -5 21 -10 57 -12 l63 -3 -35 -18 c-100 -49 -336 -63 -456 -26 -186 57
-361 189 -443 332 -16 29 -41 86 -55 127 -14 41 -26 66 -26 55 0 -32 62 -175
103 -237 95 -142 307 -289 475 -328 74 -17 264 -15 335 4 110 30 239 108 377
230 81 71 213 156 224 145 3 -2 -30 -32 -72 -67 -42 -34 -97 -80 -122 -103
-223 -201 -377 -271 -600 -272 -306 -2 -625 231 -725 528 -32 94 -51 258 -37
311 l10 39 1 -57 c1 -75 18 -84 20 -10 0 31 3 69 6 84 l6 26 50 -49 c27 -27
57 -49 66 -49z m6257 -23 c-1 -120 -19 -199 -72 -307 -50 -103 -214 -270 -317
-323 -143 -73 -324 -101 -485 -73 -110 18 -123 22 -157 40 -60 32 -60 36 -5
32 29 -2 55 0 57 5 9 13 -49 48 -150 89 l-50 21 40 -7 c167 -26 240 -31 231
-15 -3 5 -22 12 -41 15 -19 4 -54 16 -77 26 l-43 20 100 1 100 1 -55 11 c-43
9 -49 12 -27 15 15 2 25 8 22 13 -4 5 16 9 44 9 28 0 51 5 51 10 0 6 -15 10
-32 10 -38 0 -63 13 -54 28 3 5 34 13 68 16 127 13 228 30 221 36 -4 4 -56 2
-115 -3 -94 -8 -150 -5 -137 8 3 2 56 13 120 23 214 37 388 122 531 260 36 35
60 52 69 47 7 -5 10 -4 5 3 -8 13 19 29 59 33 17 2 33 8 38 14 4 6 10 5 16 -4
6 -10 11 -1 16 29 5 31 10 39 19 30 7 -7 11 -49 10 -113z m-644 8 c-7 -9 -15
-13 -19 -10 -3 3 1 10 9 15 21 14 24 12 10 -5z m-1490 -460 c362 -59 551 -118
802 -248 158 -82 263 -122 374 -142 129 -24 144 -35 39 -28 -130 8 -255 43
-398 111 -311 150 -509 203 -912 247 -82 9 -201 23 -263 31 -133 17 -229 18
-303 4 -58 -11 -159 -56 -159 -70 0 -5 24 3 53 18 49 25 59 27 174 25 129 -2
285 -33 361 -72 57 -29 129 -109 165 -181 28 -57 32 -75 32 -145 0 -69 -4 -89
-30 -138 -91 -180 -297 -232 -544 -137 -211 81 -340 220 -343 367 l-1 58 -18
-57 c-53 -169 -21 -544 63 -741 27 -62 76 -137 89 -137 6 0 7 -4 4 -10 -3 -5
-1 -10 5 -10 7 0 35 -20 63 -45 61 -54 194 -121 268 -135 75 -14 166 -12 233
5 58 15 173 77 212 113 46 44 125 152 110 152 -2 0 -21 -23 -42 -51 -127 -166
-388 -218 -609 -120 -60 26 -147 90 -198 145 -99 106 -195 334 -172 407 7 20
10 17 25 -23 9 -25 25 -56 34 -69 16 -24 16 -24 12 14 -3 20 -2 37 2 37 4 -1
30 -37 57 -81 64 -102 130 -181 186 -222 l44 -31 -54 54 c-34 34 -65 79 -83
119 -15 35 -27 65 -25 67 2 2 23 -23 47 -55 60 -79 132 -132 174 -126 17 2 31
4 31 5 0 1 45 2 101 3 91 2 104 5 140 29 67 45 112 97 149 171 19 40 35 66 35
58 0 -20 30 7 30 28 0 9 7 25 15 35 8 11 15 39 15 63 0 24 5 43 10 43 6 0 10
-8 10 -17 0 -12 3 -14 10 -7 7 7 8 25 1 52 -10 48 1 62 23 30 16 -22 16 -22
16 -2 0 12 -9 47 -20 80 l-20 59 23 -25 c13 -14 32 -38 42 -53 22 -34 30 -29
14 9 -7 16 -13 35 -15 42 -1 7 -9 23 -17 35 -46 72 -49 82 -10 40 21 -24 44
-43 51 -43 6 0 12 -5 12 -11 0 -5 -5 -7 -12 -3 -7 5 -8 3 -3 -5 5 -9 10 -10
18 -2 12 12 -53 93 -143 179 -62 60 -37 54 49 -12 66 -50 180 -195 221 -280
50 -105 64 -183 64 -346 -1 -171 -19 -254 -86 -383 -32 -63 -63 -103 -132
-173 -129 -129 -221 -174 -356 -174 -166 0 -337 83 -476 233 -218 232 -304
477 -304 863 0 130 4 176 21 245 58 228 169 324 409 350 114 12 500 2 610 -16z
m-22 -223 c67 -28 226 -127 307 -191 132 -105 268 -267 332 -395 43 -85 68
-207 60 -293 -9 -91 -40 -155 -106 -215 l-56 -51 58 5 c36 3 68 12 84 25 40
29 91 129 101 198 15 93 5 245 -18 301 -11 26 -19 49 -16 51 7 8 63 -81 76
-122 7 -22 15 -34 18 -26 4 11 6 11 13 0 11 -18 1 84 -11 117 -17 43 -4 38 18
-6 12 -25 22 -35 24 -26 5 26 52 -4 59 -39 l7 -30 1 31 c0 16 6 35 12 41 14
14 70 6 81 -11 4 -6 8 18 8 54 0 56 2 62 15 50 28 -28 48 -139 42 -230 -11
-168 -101 -315 -239 -387 -50 -27 -59 -28 -188 -28 -117 0 -220 8 -387 31 -24
4 -43 10 -43 15 0 5 6 9 13 9 14 0 51 39 43 47 -2 3 4 22 15 43 29 56 62 225
55 285 -4 41 -4 46 5 25 29 -67 7 -236 -39 -310 -14 -23 -14 -24 1 -12 15 13
61 92 52 92 -2 0 3 16 11 35 20 48 20 195 -1 274 -9 35 -14 65 -11 68 5 5 55
-148 57 -175 1 -24 17 26 18 58 1 20 -1 22 -9 10 -8 -13 -8 24 0 70 0 3 9 -13
19 -35 22 -46 28 -34 7 16 -7 19 -17 45 -21 59 l-7 25 21 -27 c11 -14 21 -34
21 -43 0 -9 5 -13 10 -10 14 9 12 35 -6 70 l-15 30 35 -34 c20 -19 36 -31 36
-25 1 5 8 -4 16 -19 9 -16 18 -26 21 -23 3 3 -11 35 -32 72 -112 204 -376 448
-591 545 -60 27 -76 39 -55 39 5 0 40 -13 79 -28z m-2773 -578 c-79 -157 -68
-415 22 -515 42 -46 29 -52 -20 -9 -100 87 -117 342 -35 504 17 32 56 85 65
86 0 0 -14 -30 -32 -66z m3472 18 c57 -83 67 -123 67 -267 1 -115 -2 -136 -22
-181 -23 -51 -72 -106 -104 -117 -24 -9 -23 -3 8 30 63 67 101 204 88 323 -7
68 -33 159 -66 223 -26 52 -9 46 29 -11z m-1937 -42 c0 -11 -4 -20 -9 -20 -5
0 -7 9 -4 20 3 11 7 20 9 20 2 0 4 -9 4 -20z m-1219 -200 c10 -105 35 -203 63
-240 10 -13 9 -13 -6 -1 -27 21 -67 111 -78 177 -9 52 -4 191 6 181 3 -2 9
-55 15 -117z"/>
<path d="M1922 4490 c0 -14 2 -19 5 -12 2 6 2 18 0 25 -3 6 -5 1 -5 -13z"/>
<path d="M2190 4406 c0 -2 8 -10 18 -17 15 -13 16 -12 3 4 -13 16 -21 21 -21
13z"/>
<path d="M2249 4361 c13 -12 28 -21 34 -21 12 0 11 0 -28 24 l-30 17 24 -20z"/>
<path d="M8009 4393 c-13 -15 -12 -15 9 -4 23 12 28 21 13 21 -5 0 -15 -7 -22
-17z"/>
<path d="M5920 3986 c0 -4 18 -28 40 -53 22 -25 53 -69 70 -97 38 -65 39 -52
1 22 -26 50 -111 149 -111 128z"/>
<path d="M2815 6539 c-33 -12 -66 -25 -72 -31 -27 -22 -11 -26 43 -11 69 17
102 11 176 -33 113 -68 209 -206 254 -364 25 -87 27 -111 29 -292 0 -109 -2
-198 -6 -198 -5 0 -13 8 -18 18 -24 41 -8 1 22 -56 l34 -63 6 158 c10 267 -13
421 -88 578 -51 106 -120 187 -208 244 -34 23 -55 41 -47 41 23 -1 100 -38
140 -68 l35 -27 -17 27 -17 26 32 -10 c18 -5 55 -12 82 -14 146 -12 187 -20
275 -55 122 -49 146 -64 233 -152 48 -50 87 -96 87 -103 0 -7 6 -17 13 -21 26
-16 65 -100 96 -203 17 -58 36 -119 41 -136 6 -17 10 -40 10 -53 0 -12 7 -37
14 -56 11 -26 12 -35 3 -35 -7 0 -6 -4 3 -10 8 -5 32 -10 52 -10 35 0 37 2 29
23 -24 62 -33 205 -24 352 7 101 7 153 0 160 -7 7 -8 6 -3 -2 4 -7 -5 -68 -18
-135 -24 -118 -25 -127 -11 -208 8 -47 19 -103 24 -124 5 -22 8 -44 5 -48 -12
-19 -23 -5 -34 45 -79 343 -102 412 -181 528 -133 198 -324 298 -628 329 -167
16 -296 13 -366 -11z"/>
<path d="M6975 6544 c-109 -17 -195 -44 -295 -91 -101 -48 -225 -172 -293
-293 -54 -98 -108 -255 -132 -385 -8 -49 -18 -100 -21 -112 -3 -15 0 -23 10
-23 9 0 14 12 14 39 2 108 108 392 176 470 11 13 14 20 6 16 -8 -5 0 6 17 25
18 18 35 42 39 52 3 10 12 18 20 18 8 0 14 5 14 11 0 6 5 9 11 7 6 -2 26 11
45 29 81 76 245 139 412 158 53 6 66 4 83 -11 17 -16 20 -16 37 -1 27 25 130
69 150 65 11 -3 1 -12 -34 -30 -182 -95 -298 -355 -289 -653 1 -44 3 -134 4
-200 2 -109 3 -118 16 -94 9 16 12 45 10 80 -10 140 -6 327 10 403 65 315 278
516 495 467 l45 -10 -23 20 c-51 41 -144 59 -296 58 -77 -1 -181 -8 -231 -15z"/>
<path d="M4031 6194 c0 -11 3 -14 6 -6 3 7 2 16 -1 19 -3 4 -6 -2 -5 -13z"/>
<path d="M8137 6130 c-202 -34 -373 -231 -447 -513 -16 -61 -28 -112 -26 -114
2 -2 30 0 62 3 53 7 56 8 31 17 -19 6 -27 15 -27 33 0 13 5 24 10 24 6 0 10 5
10 11 0 6 20 38 45 70 25 33 45 63 45 67 0 5 10 17 23 28 12 11 38 38 58 60
42 47 150 121 187 130 15 4 36 12 47 18 22 12 30 13 127 22 61 6 72 4 112 -20
24 -14 49 -26 55 -26 18 0 13 48 -9 90 -28 55 -84 89 -161 100 -72 11 -76 11
-142 0z"/>
<path d="M1894 6107 c-56 -27 -91 -73 -101 -132 -3 -19 -4 -35 -2 -35 2 0 28
9 57 20 43 17 68 19 123 15 90 -8 189 -45 189 -72 0 -7 10 -13 23 -13 22 0 87
-48 87 -64 0 -4 29 -37 65 -74 36 -36 65 -70 65 -75 0 -5 7 -15 15 -23 8 -9
15 -24 15 -35 0 -10 4 -19 9 -19 14 0 33 -57 27 -78 -6 -17 -1 -20 31 -24 21
-3 39 -4 40 -3 8 6 -20 161 -39 220 -53 163 -177 324 -293 381 -52 25 -73 29
-160 32 -89 3 -106 0 -151 -21z"/>
<path d="M4726 6045 c-3 -8 -1 -15 3 -15 5 0 11 7 15 15 3 8 1 15 -3 15 -5 0
-11 -7 -15 -15z"/>
<path d="M7419 6003 c-13 -16 -12 -17 4 -4 9 7 17 15 17 17 0 8 -8 3 -21 -13z"/>
<path d="M4727 5968 c-47 -44 -81 -100 -92 -153 -3 -16 4 -6 15 23 13 30 45
78 77 112 30 33 53 60 51 60 -2 0 -25 -19 -51 -42z"/>
<path d="M2710 5965 c13 -14 26 -25 28 -25 3 0 -5 11 -18 25 -13 14 -26 25
-28 25 -3 0 5 -11 18 -25z"/>
<path d="M2780 5976 c0 -2 8 -10 18 -17 15 -13 16 -12 3 4 -13 16 -21 21 -21
13z"/>
<path d="M6189 5918 c-2 -114 -15 -211 -31 -242 -8 -15 -17 -17 -56 -12 -32 5
-42 3 -31 -3 8 -5 37 -13 65 -16 l49 -7 22 148 c22 147 23 148 3 166 -20 19
-20 18 -21 -34z"/>
<path d="M7635 5892 c-67 -101 -129 -168 -249 -267 -101 -83 -246 -225 -246
-241 0 -5 26 16 58 47 31 30 93 86 137 124 169 145 290 278 339 373 30 58 13
42 -39 -36z"/>
<path d="M2565 5922 c27 -57 139 -184 240 -272 33 -29 78 -69 100 -88 22 -19
65 -58 95 -86 30 -28 45 -40 35 -27 -37 45 -100 105 -232 224 -113 100 -177
171 -241 263 -7 11 -5 4 3 -14z"/>
<path d="M2940 5814 c69 -71 127 -131 130 -134 3 -3 21 -27 41 -55 88 -125
178 -317 170 -364 -1 -7 2 -10 7 -7 12 7 -10 -77 -23 -86 -10 -7 -12 -19 -19
-101 -2 -20 -6 -40 -10 -44 -10 -10 -7 -89 4 -119 9 -24 9 -25 -5 -14 -8 7
-15 18 -15 25 0 7 -35 59 -77 116 -85 115 -221 254 -317 325 l-61 45 70 -62
c147 -132 365 -379 365 -413 0 -5 -9 3 -21 18 -51 65 -352 334 -432 387 -186
123 -303 140 -586 87 -154 -29 -122 -41 119 -43 102 -1 199 -5 215 -8 38 -7
148 -48 155 -57 3 -4 22 -13 44 -20 46 -15 136 -69 136 -82 0 -5 4 -7 9 -4 4
3 19 -6 32 -21 13 -14 17 -23 9 -18 -28 15 4 -12 61 -51 122 -84 290 -258 274
-284 -4 -6 -1 -9 5 -8 15 4 23 -24 22 -74 0 -37 11 -50 22 -25 3 6 3 1 0 -12
-5 -18 -3 -23 8 -19 9 4 24 -16 47 -63 60 -123 196 -241 342 -299 103 -41 131
-37 36 4 -223 97 -349 239 -403 451 -25 102 -23 247 6 355 23 83 23 85 6 155
-24 93 -102 255 -161 333 -46 61 -277 287 -312 305 -10 6 38 -48 107 -119z"/>
<path d="M7414 5908 l-19 -23 23 19 c21 18 27 26 19 26 -2 0 -12 -10 -23 -22z"/>
<path d="M7374 5898 l-19 -23 23 19 c21 18 27 26 19 26 -2 0 -12 -10 -23 -22z"/>
<path d="M2970 5899 c0 -2 35 -38 77 -79 43 -41 64 -60 48 -41 -47 53 -125
129 -125 120z"/>
<path d="M7234 5876 c-10 -8 -16 -17 -13 -20 3 -3 14 3 24 14 21 23 17 26 -11
6z"/>
<path d="M7304 5842 c-83 -61 -196 -178 -248 -256 -66 -98 -82 -138 -100 -239
-18 -105 0 -85 43 48 18 55 42 116 54 135 37 62 164 205 247 277 25 22 46 45
48 51 3 17 0 16 -44 -16z"/>
<path d="M7194 5837 c-6 -7 -31 -30 -55 -53 -24 -22 -55 -54 -69 -70 -14 -16
11 5 55 46 72 67 94 91 83 90 -1 -1 -8 -6 -14 -13z"/>
<path d="M7000 5620 c-6 -11 -8 -20 -6 -20 3 0 10 9 16 20 6 11 8 20 6 20 -3
0 -10 -9 -16 -20z"/>
<path d="M6395 5591 l-30 -6 0 -335 c0 -324 1 -337 22 -382 29 -64 38 -61 13
5 -36 95 -23 435 22 562 22 60 26 98 19 158 -1 8 -2 8 -46 -2z"/>
<path d="M5375 5402 c-45 -15 -92 -34 -105 -43 l-25 -16 7 -179 c4 -98 11
-197 16 -219 8 -37 9 -34 16 50 10 126 14 142 43 165 34 27 83 34 140 22 27
-6 64 -13 84 -17 19 -3 44 -13 55 -23 10 -10 38 -23 61 -30 24 -7 47 -22 53
-32 6 -11 16 -20 23 -20 17 0 97 -79 97 -95 0 -3 12 -23 26 -44 20 -31 25 -50
23 -85 -2 -25 0 -48 4 -52 4 -4 7 -80 7 -168 -1 -218 -17 -283 -69 -269 -13 3
-21 1 -21 -7 0 -10 -20 -11 -82 -7 -60 4 -72 3 -43 -3 22 -5 87 -9 145 -9
l105 -1 -5 402 c-5 390 -6 405 -28 458 -88 215 -293 302 -527 222z"/>
<path d="M4455 5344 c-46 -7 -195 -34 -245 -45 l-45 -10 5 -492 5 -492 65 -2
c58 -2 61 -1 31 8 -62 19 -61 17 -61 259 0 233 7 350 21 350 5 0 9 6 9 14 0 8
7 16 15 20 8 3 15 12 15 20 0 8 9 18 20 21 11 4 33 18 47 31 15 14 32 23 39
20 12 -4 68 12 92 27 6 5 17 5 23 1 6 -3 31 -6 56 -6 25 1 55 -4 67 -10 11 -6
31 -13 43 -14 22 -3 66 -37 111 -86 14 -16 31 -28 39 -28 7 0 13 -7 13 -15 0
-8 4 -15 9 -15 16 0 34 -148 27 -223 -10 -109 -30 -209 -40 -200 -5 4 -7 4 -4
-2 8 -15 -36 -100 -50 -98 -7 2 -12 -1 -12 -6 0 -14 -66 -52 -118 -67 l-47
-14 45 6 c134 16 223 107 256 263 16 78 19 391 4 470 -34 178 -169 305 -335
315 -38 2 -83 2 -100 0z"/>
<path d="M3690 5311 c-146 -45 -239 -217 -240 -441 0 -146 52 -272 156 -377
34 -35 68 -63 74 -63 7 0 -11 21 -40 47 -59 53 -104 118 -94 135 4 7 3 8 -4 4
-7 -4 -12 -5 -12 -2 0 3 -7 31 -15 63 -16 59 -11 199 5 173 9 -15 30 -4 30 15
0 20 51 65 73 65 13 0 17 5 13 15 -4 11 2 15 24 15 17 0 30 4 30 10 0 10 10
11 79 10 46 -1 116 -51 132 -95 7 -18 16 -32 20 -30 3 3 9 -17 13 -43 10 -80
27 -363 22 -371 -3 -4 -6 -24 -8 -45 -1 -26 -7 -36 -18 -35 -8 1 -28 0 -45 -1
-29 -1 -28 -2 12 -14 23 -8 53 -16 67 -20 l26 -6 0 493 0 494 -67 6 c-88 9
-201 7 -233 -2z"/>
<path d="M7189 5193 c-141 -146 -187 -202 -233 -280 -17 -30 3 -9 34 35 19 26
51 65 71 87 187 206 230 255 227 255 -2 0 -47 -44 -99 -97z"/>
<path d="M2685 5131 c28 -5 83 -22 124 -40 93 -39 108 -32 17 9 -43 20 -88 32
-129 35 -60 4 -60 4 -12 -4z"/>
<path d="M7548 5133 c12 -2 30 -2 40 0 9 3 -1 5 -23 4 -22 0 -30 -2 -17 -4z"/>
<path d="M7423 5115 c-18 -8 -33 -16 -33 -19 0 -3 15 1 33 8 17 7 39 16 47 19
13 5 13 5 0 6 -8 0 -30 -6 -47 -14z"/>
<path d="M6912 5086 c-33 -48 -41 -85 -27 -126 l12 -35 8 35 c5 19 8 43 6 53
-1 10 2 24 7 30 10 12 27 77 20 77 -2 0 -13 -15 -26 -34z"/>
<path d="M7312 5067 c-17 -10 -32 -24 -32 -29 0 -6 8 -4 18 5 9 8 33 22 52 30
21 9 27 15 15 14 -11 0 -35 -9 -53 -20z"/>
<path d="M2900 5056 c0 -3 9 -10 20 -16 11 -6 20 -8 20 -6 0 3 -9 10 -20 16
-11 6 -20 8 -20 6z"/>
<path d="M7229 5028 c0 -2 -2 -11 -4 -21 -3 -15 -1 -16 11 -6 7 6 11 15 8 20
-5 9 -13 12 -15 7z"/>
<path d="M6788 4960 c3 -52 -1 -70 -24 -113 -15 -29 -47 -69 -71 -89 -50 -43
-49 -46 6 -19 48 25 95 78 111 126 13 40 6 112 -13 139 -11 15 -12 7 -9 -44z"/>
<path d="M2995 4990 c10 -11 20 -20 23 -20 3 0 -3 9 -13 20 -10 11 -20 20 -23
20 -3 0 3 -9 13 -20z"/>
<path d="M5225 4895 c5 -141 27 -252 69 -340 35 -72 92 -147 129 -167 14 -7 9
3 -17 33 -76 89 -121 214 -162 449 l-23 135 4 -110z"/>
<path d="M6901 4904 c0 -11 3 -14 6 -6 3 7 2 16 -1 19 -3 4 -6 -2 -5 -13z"/>
<path d="M7328 4863 c7 -3 16 -2 19 1 4 3 -2 6 -13 5 -11 0 -14 -3 -6 -6z"/>
<path d="M7240 4853 c-52 -17 -121 -49 -155 -73 -46 -32 -138 -121 -131 -127
3 -3 42 25 88 62 46 37 95 72 110 77 16 6 25 14 22 19 -3 5 6 9 20 9 14 0 28
5 31 10 3 6 17 10 31 10 13 0 24 5 24 10 0 11 -15 12 -40 3z"/>
<path d="M7960 4841 c0 -6 4 -13 10 -16 6 -3 7 1 4 9 -7 18 -14 21 -14 7z"/>
<path d="M7945 4789 c-6 -17 -9 -19 -16 -8 -5 8 -9 10 -9 4 0 -29 17 -32 32
-4 9 16 13 29 8 29 -5 0 -12 -10 -15 -21z"/>
<path d="M7901 4754 c0 -11 3 -14 6 -6 3 7 2 16 -1 19 -3 4 -6 -2 -5 -13z"/>
<path d="M7805 4690 c-3 -5 -1 -10 4 -10 6 0 11 5 11 10 0 6 -2 10 -4 10 -3 0
-8 -4 -11 -10z"/>
<path d="M7915 4590 c-3 -5 1 -10 10 -10 9 0 13 5 10 10 -3 6 -8 10 -10 10 -2
0 -7 -4 -10 -10z"/>
<path d="M5370 4573 c0 -11 42 -74 75 -114 27 -33 94 -83 130 -98 l30 -12 -25
21 c-14 11 -31 20 -37 20 -7 0 -13 5 -13 10 0 6 -5 10 -10 10 -17 0 -73 59
-113 119 -21 29 -37 49 -37 44z"/>
<path d="M3719 4411 c13 -12 28 -21 34 -21 12 0 11 0 -28 24 l-30 17 24 -20z"/>
<path d="M1960 4100 c0 -5 5 -10 11 -10 5 0 7 5 4 10 -3 6 -8 10 -11 10 -2 0
-4 -4 -4 -10z"/>
<path d="M4779 3123 c-65 -89 -63 -98 7 -28 32 33 42 50 36 61 -6 11 -16 4
-43 -33z"/>
<path d="M4590 3110 c-9 -6 -10 -10 -3 -10 6 0 15 5 18 10 8 12 4 12 -15 0z"/>
<path d="M4702 3029 c-12 -19 -11 -19 8 -9 11 6 18 15 15 21 -8 12 -8 12 -23
-12z"/>
</g>
</svg>
